<svg width="70" height="70" viewBox="0 0 70 70" fill="none" xmlns="http://www.w3.org/2000/svg">
<g clip-path="url(#clip0_43_132)">
<path d="M69.8821 20.5266C69.8816 19.3527 69.5991 18.3153 69.0279 17.425C68.4668 16.5495 67.6266 15.8157 66.4995 15.2355C57.1957 10.467 47.883 5.71311 38.5823 0.939744C36.0749 -0.346992 33.6437 -0.300082 31.1549 1.00513C27.4518 2.94641 8.91133 12.3884 3.38652 15.2329C1.11125 16.4037 0.00410156 18.1955 0.00355469 20.5244C0 30.1142 0.00355469 39.7037 0 49.2937C0 50.4419 0.270977 51.4591 0.817031 52.336C1.3784 53.238 2.23043 53.992 3.38352 54.5853C8.90859 57.4297 27.4515 66.871 31.1538 68.8128C33.6437 70.1187 36.0749 70.1654 38.5831 68.8781C47.8841 64.1045 57.1974 59.3509 66.5025 54.5823C67.6555 53.9893 68.5076 53.2348 69.0689 52.3336C69.6142 51.4566 69.8857 50.4395 69.8857 49.291C69.8857 49.291 69.8857 30.1166 69.8821 20.5266Z" fill="#A179DC"/>
<path d="M35.0498 34.8154L0.817017 52.3358C1.37838 53.2378 2.23041 53.9918 3.3835 54.5851C8.90858 57.4296 27.4515 66.8708 31.1538 68.8126C33.6437 70.1185 36.0749 70.1652 38.5831 68.878C47.8841 64.1044 57.1974 59.3507 66.5024 54.5822C67.6555 53.9891 68.5076 53.2347 69.0689 52.3334L35.0498 34.8154Z" fill="#280068"/>
<path d="M69.8822 20.5264C69.8816 19.3525 69.5992 18.3151 69.028 17.4248L35.0498 34.8154L69.069 52.3334C69.6142 51.4565 69.8852 50.4393 69.8857 49.2908C69.8857 49.2908 69.8857 30.1164 69.8822 20.5264Z" fill="#390091"/>
<path d="M55.2049 28.2656V31.5405H58.8891V28.2656H60.7312V31.5405H64.4154V33.1779H60.7312V36.4528H64.4154V38.0902H60.7312V41.365H58.8891V38.0902H55.2049V41.365H53.3628V38.0902H49.6786V36.4528H53.3628V33.1779H49.6786V31.5405H53.3628V28.2656H55.2049ZM58.8891 33.1779H55.2049V36.4528H58.8891V33.1779Z" fill="white"/>
<path d="M35.1249 11.8184C44.7345 11.8184 53.1245 16.4574 57.6184 23.3528L57.5745 23.2864L46.2683 29.0732C44.0407 25.7206 39.9569 23.4581 35.2725 23.4115L35.1249 23.4108C27.9812 23.4108 22.1897 28.5585 22.1897 34.9085C22.1897 36.9851 22.8125 38.9316 23.8956 40.6129C26.1253 44.0728 30.3167 46.4065 35.1249 46.4065C39.9628 46.4065 44.1781 44.0432 46.3964 40.5462L46.3425 40.6302L57.6318 46.4436C53.1872 53.2806 44.9122 57.9053 35.4143 57.9975L35.1249 57.9989C25.485 57.9989 17.0711 53.3313 12.5886 46.3994C10.4003 43.0154 9.14819 39.0921 9.14819 34.9085C9.14819 22.1563 20.7781 11.8184 35.1249 11.8184Z" fill="white"/>
</g>
<defs>
<clipPath id="clip0_43_132">
<rect width="70" height="70" fill="white"/>
</clipPath>
</defs>
</svg>
