<svg width="70" height="70" viewBox="0 0 70 70" fill="none" xmlns="http://www.w3.org/2000/svg">
<path d="M70 0L63.6228 62.9927L34.9572 70L6.37042 63.0026L0 0H70Z" fill="#264DE4"/>
<path d="M58.1633 58.9815L63.613 5.15137H35V64.6439L58.1633 58.9815Z" fill="#2965F1"/>
<path d="M14.6041 28.5186L15.3895 36.2455H35V28.5186H14.6041Z" fill="#EBEBEB"/>
<path d="M35 12.8779H34.9697H13.0259L13.8225 20.605H35V12.8779Z" fill="#EBEBEB"/>
<path d="M35 56.625V48.5857L34.9616 48.5947L25.2018 46.271L24.5779 40.1084H19.8355H15.781L17.0087 52.2409L34.9596 56.6349L35 56.625Z" fill="#EBEBEB"/>
<path d="M45.7607 36.2445L44.7435 46.2658L34.9697 48.5919V56.6309L52.9349 52.2406L53.0667 50.9352L55.126 30.5925L55.3398 28.5176L56.9218 12.8779H34.9697V20.605H47.3181L46.5207 28.5176H34.9697V36.2445H45.7607Z" fill="white"/>
</svg>
