<svg width="70" height="45" viewBox="0 0 70 45" fill="none" xmlns="http://www.w3.org/2000/svg">
<path fill-rule="evenodd" clip-rule="evenodd" d="M35 45C54.33 45 70 34.926 70 22.5C70 10.074 54.33 0 35 0C15.6704 0 0 10.074 0 22.5C0 34.926 15.6704 45 35 45Z" fill="#6E81B6"/>
<path fill-rule="evenodd" clip-rule="evenodd" d="M42.0932 29.7722L43.8293 18.4377C44.2212 15.8795 43.8953 13.9714 42.8614 12.7656C41.8596 11.599 40.1591 11.0315 37.6629 11.0315H34.6563L35.5163 5.41574C35.5324 5.31122 35.5301 5.20347 35.5095 5.10023C35.4889 4.99698 35.4505 4.9008 35.3971 4.81858C35.3438 4.73637 35.2767 4.67015 35.2008 4.6247C35.1249 4.57924 35.042 4.55566 34.958 4.55566H30.8083C30.5357 4.55566 30.3017 4.80102 30.2496 5.14032L28.4056 17.1733C28.238 15.8193 27.825 14.6554 27.1639 13.6949C25.9467 11.9275 24.0214 11.0315 21.441 11.0315H13.398C13.1254 11.0315 12.8914 11.2768 12.8393 11.6156L9.10775 35.9726C9.07516 36.1847 9.11876 36.4027 9.2271 36.5691C9.33503 36.7361 9.49585 36.8322 9.66641 36.8322H13.8487C14.1213 36.8322 14.3553 36.5868 14.4074 36.247L15.3101 30.3558H18.4234C20.0571 30.3558 21.43 30.1314 22.5016 29.689C23.5973 29.237 24.6059 28.4703 25.4947 27.4148C26.2129 26.5778 26.8062 25.6404 27.2629 24.6295L26.5176 29.4957C26.485 29.7078 26.5286 29.9269 26.637 30.0922C26.7449 30.2592 26.9061 30.3553 27.0763 30.3553H31.226C31.4986 30.3553 31.7326 30.1099 31.7847 29.7712L33.8327 16.4013H36.6801C37.8935 16.4013 38.249 16.7079 38.346 16.8394C38.4336 16.9597 38.6155 17.3833 38.4111 18.7185L36.7605 29.4952C36.7447 29.5997 36.7473 29.7073 36.768 29.8104C36.7888 29.9135 36.8272 30.0095 36.8805 30.0916C36.9339 30.1737 37.0009 30.2399 37.0767 30.2853C37.1525 30.3308 37.2353 30.3545 37.3192 30.3547H41.535C41.6669 30.3551 41.7948 30.2971 41.8966 30.1908C41.9985 30.0845 42.068 29.9365 42.0932 29.7722ZM22.8542 20.407C22.5934 22.1062 22.1025 23.3179 21.394 24.0089C20.6745 24.7127 19.5238 25.0692 17.9735 25.0692H16.1198L17.4601 16.3192H19.8569C21.6175 16.3192 22.3268 16.7965 22.6116 17.1964C23.0065 17.7516 23.0903 18.8624 22.8542 20.407ZM59.5729 13.6949C58.3561 11.9275 56.4309 11.0315 53.8504 11.0315H45.8074C45.5345 11.0315 45.3008 11.2768 45.2488 11.6156L41.5176 35.9726C41.4846 36.1847 41.5282 36.4027 41.6365 36.5691C41.7449 36.7355 41.9061 36.8322 42.0754 36.8322H46.2582C46.5312 36.8322 46.7648 36.5868 46.8168 36.247L47.7196 30.3558H50.8333C52.4673 30.3558 53.839 30.1314 54.9111 29.689C56.0072 29.237 57.0158 28.4703 57.9041 27.4148C58.6456 26.551 59.2555 25.5798 59.7176 24.5312C60.1798 23.4827 60.5112 22.3134 60.7046 21.055C61.1799 17.9513 60.7994 15.4752 59.5729 13.6949ZM55.501 20.407C55.2399 22.1062 54.749 23.3179 54.0413 24.0089C53.3214 24.7127 52.1707 25.0692 50.6208 25.0692H48.7666L50.1066 16.3192H52.5037C54.2644 16.3192 54.9737 16.7965 55.2589 17.1964C55.653 17.7516 55.7372 18.8624 55.501 20.407Z" fill="white"/>
<path fill-rule="evenodd" clip-rule="evenodd" d="M19.7379 15.5976C21.3267 15.5976 22.386 15.9697 22.9155 16.7138C23.4445 17.4579 23.5706 18.7356 23.2938 20.5455C23.0043 22.4304 22.4474 23.7758 21.6221 24.5822C20.7968 25.3886 19.5406 25.7913 17.8545 25.7913H15.3101L16.8718 15.5976H19.7379ZM9.54697 36.1106H13.7293L14.7218 29.6353H18.3044C19.8852 29.6353 21.1857 29.4243 22.2066 29.0029C23.2274 28.5814 24.1555 27.8754 24.9905 26.8838C25.6914 26.0672 26.2585 25.1653 26.6928 24.1796C27.1266 23.1939 27.4347 22.1067 27.6171 20.9175C28.0598 18.0302 27.7259 15.7812 26.6162 14.1706C25.5069 12.5594 23.7416 11.7541 21.322 11.7541H13.279L9.54697 36.1106ZM30.6889 5.27832H34.8386L33.8466 11.7541H37.5439C39.8691 11.7541 41.4744 12.2684 42.3573 13.2976C43.2401 14.3268 43.5047 15.9949 43.1517 18.3008L41.4156 29.6353H37.1998L38.8504 18.8581C39.0379 17.6318 38.9693 16.7959 38.643 16.3498C38.3167 15.9042 37.6222 15.6808 36.5607 15.6808H33.2443L31.1066 29.6353H26.9569L30.6889 5.27832ZM52.3848 15.5976C53.9736 15.5976 55.0325 15.9697 55.5624 16.7138C56.0914 17.4579 56.2171 18.7356 55.9404 20.5455C55.6517 22.4304 55.0947 23.7758 54.269 24.5822C53.4442 25.3886 52.1876 25.7913 50.5023 25.7913H47.9579L49.5191 15.5976H52.3848ZM42.1931 36.1106H46.3758L47.3679 29.6353H50.9505C52.5317 29.6353 53.8323 29.4243 54.8531 29.0029C55.8739 28.5814 56.802 27.8754 57.6371 26.8838C58.3379 26.0672 58.9051 25.1653 59.3389 24.1796C59.7727 23.1939 60.0812 22.1067 60.264 20.9175C60.7063 18.0302 60.3724 15.7812 59.2631 14.1706C58.153 12.5594 56.3881 11.7541 53.9685 11.7541H45.9255L42.1931 36.1106Z" fill="black"/>
</svg>
