<svg width="70" height="70" viewBox="0 0 70 70" fill="none" xmlns="http://www.w3.org/2000/svg">
<path d="M34.7478 0C16.9774 0 18.087 7.74657 18.087 7.74657L18.1067 15.7722H35.0647V18.1818H11.3713C11.3713 18.1818 0 16.8854 0 34.9093C0 52.9337 9.92512 52.2945 9.92512 52.2945H15.8484V43.9305C15.8484 43.9305 15.5291 33.9535 25.6151 33.9535H42.4344C42.4344 33.9535 51.8839 34.1069 51.8839 24.773V9.33997C51.8839 9.33997 53.3191 0 34.7478 0ZM25.3972 5.39711C25.7979 5.39675 26.1948 5.47582 26.5651 5.62981C26.9354 5.78379 27.2718 6.00967 27.5552 6.29451C27.8385 6.57934 28.0632 6.91756 28.2164 7.28978C28.3696 7.66201 28.4483 8.06095 28.4479 8.46377C28.4483 8.8666 28.3696 9.26554 28.2164 9.63777C28.0632 10.01 27.8385 10.3482 27.5552 10.633C27.2718 10.9179 26.9354 11.1438 26.5651 11.2977C26.1948 11.4517 25.7979 11.5308 25.3972 11.5304C24.9965 11.5308 24.5996 11.4517 24.2293 11.2977C23.859 11.1438 23.5226 10.9179 23.2392 10.633C22.9558 10.3482 22.7311 10.01 22.578 9.63777C22.4248 9.26554 22.3461 8.8666 22.3465 8.46377C22.3461 8.06095 22.4248 7.66201 22.578 7.28978C22.7311 6.91756 22.9558 6.57934 23.2392 6.29451C23.5226 6.00967 23.859 5.78379 24.2293 5.62981C24.5996 5.47582 24.9965 5.39675 25.3972 5.39711Z" fill="url(#paint0_linear_43_187)"/>
<path d="M35.2524 69.9995C53.0228 69.9995 51.9133 62.253 51.9133 62.253L51.8935 54.2275H34.9353V51.818H58.6287C58.6287 51.818 70 53.1144 70 35.0899C70 17.0657 60.0748 17.705 60.0748 17.705H54.1516V26.0687C54.1516 26.0687 54.4709 36.0457 44.3849 36.0457H27.5656C27.5656 36.0457 18.116 35.8923 18.116 45.2265V60.6598C18.116 60.6598 16.6811 69.9995 35.2522 69.9995H35.2524ZM44.6031 64.603C44.2023 64.6033 43.8055 64.5243 43.4352 64.3703C43.0649 64.2163 42.7284 63.9904 42.4451 63.7056C42.1617 63.4207 41.937 63.0825 41.7838 62.7103C41.6306 62.3381 41.552 61.9391 41.5523 61.5363C41.5519 61.1334 41.6306 60.7345 41.7837 60.3622C41.9369 59.99 42.1616 59.6517 42.445 59.3668C42.7283 59.082 43.0648 58.8561 43.4351 58.7021C43.8054 58.5481 44.2023 58.469 44.6031 58.4693C45.0038 58.469 45.4006 58.5481 45.7709 58.702C46.1412 58.856 46.4777 59.0819 46.761 59.3667C47.0444 59.6516 47.2691 59.9898 47.4223 60.362C47.5755 60.7343 47.6541 61.1332 47.6538 61.536C47.6541 61.9388 47.5755 62.3378 47.4223 62.71C47.2691 63.0822 47.0444 63.4204 46.761 63.7053C46.4777 63.9901 46.1412 64.216 45.7709 64.37C45.4006 64.524 45.0038 64.6031 44.6031 64.6027V64.603Z" fill="url(#paint1_linear_43_187)"/>
<defs>
<linearGradient id="paint0_linear_43_187" x1="6.72697" y1="6.29607" x2="41.5958" y2="40.6376" gradientUnits="userSpaceOnUse">
<stop stop-color="#387EB8"/>
<stop offset="1" stop-color="#366994"/>
</linearGradient>
<linearGradient id="paint1_linear_43_187" x1="28.0196" y1="28.4644" x2="65.4558" y2="63.67" gradientUnits="userSpaceOnUse">
<stop stop-color="#FFE052"/>
<stop offset="1" stop-color="#FFC331"/>
</linearGradient>
</defs>
</svg>
