<svg width="75" height="70" viewBox="0 0 75 70" fill="none" xmlns="http://www.w3.org/2000/svg">
<path d="M37.5 41.1718C41.1024 41.1718 44.0227 38.4088 44.0227 35.0005C44.0227 31.5921 41.1024 28.8291 37.5 28.8291C33.8976 28.8291 30.9773 31.5921 30.9773 35.0005C30.9773 38.4088 33.8976 41.1718 37.5 41.1718Z" fill="#61DAFB"/>
<path d="M37.5 47.644C56.83 47.644 72.5 41.9832 72.5 35.0002C72.5 28.0173 56.83 22.3564 37.5 22.3564C18.17 22.3564 2.5 28.0173 2.5 35.0002C2.5 41.9832 18.17 47.644 37.5 47.644Z" stroke="#61DAFB" stroke-width="5"/>
<path d="M25.9267 41.3219C35.5917 57.1604 48.6082 67.1696 55 63.6781C61.3917 60.1866 58.7382 44.5166 49.0732 28.6781C39.4082 12.8396 26.3917 2.8304 20 6.32188C13.6082 9.81336 16.2617 25.4834 25.9267 41.3219Z" stroke="#61DAFB" stroke-width="5"/>
<path d="M25.9267 28.6779C16.2618 44.5164 13.6083 60.1864 20 63.6779C26.3917 67.1694 39.4083 57.1601 49.0732 41.3217C58.7382 25.4832 61.3917 9.81315 55 6.32167C48.6083 2.83019 35.5917 12.8394 25.9267 28.6779Z" stroke="#61DAFB" stroke-width="5"/>
</svg>
